<?xml version="1.0" encoding="utf-8"?>
<!-- Generator: Adobe Illustrator 16.0.0, SVG Export Plug-In . SVG Version: 6.00 Build 0)  -->
<!DOCTYPE svg PUBLIC "-//W3C//DTD SVG 1.1//EN" "http://www.w3.org/Graphics/SVG/1.1/DTD/svg11.dtd">
<svg version="1.1" id="Ebene_1" xmlns="http://www.w3.org/2000/svg" xmlns:xlink="http://www.w3.org/1999/xlink" x="0px" y="0px"
	 width="500px" height="500px" viewBox="0 0 500 500" enable-background="new 0 0 500 500" xml:space="preserve">
<rect y="-769.889" fill="#0078B4" width="500.002" height="500"/>
<g>
	<g>
		<rect x="319" y="-769.889" fill="#009BDC" width="22" height="500"/>
		<rect x="478" y="-769.889" fill="#009BDC" width="22" height="500"/>
		<rect x="159" y="-769.889" fill="#009BDC" width="22" height="500"/>
		<rect y="-769.889" fill="#009BDC" width="22" height="500"/>
	</g>
	<g>
		<rect y="-291.889" fill="#009BDC" width="500" height="22"/>
		<rect y="-769.889" fill="#009BDC" width="500" height="21.998"/>
	</g>
</g>
<path fill="#1E3C64" d="M213.16-665.004H0v-104.885h300c0,0,0,0.612,0,30.413C300-658.702,213.16-665.004,213.16-665.004z"/>
<g>
	<g>
		<path fill="#0078B4" d="M189-737.399c0-5.219,4.27-9.489,9.489-9.489h31.021c5.219,0,9.489,4.271,9.489,9.489v31.021
			c0,5.219-4.27,9.489-9.489,9.489h-31.021c-5.219,0-9.489-4.271-9.489-9.489V-737.399z"/>
	</g>
</g>
<g>
	<g>
		<path fill="#0078B4" d="M113-737.399c0-5.219,4.27-9.489,9.489-9.489h31.021c5.219,0,9.489,4.271,9.489,9.489v31.021
			c0,5.219-4.27,9.489-9.489,9.489h-31.021c-5.219,0-9.489-4.271-9.489-9.489V-737.399z"/>
	</g>
</g>
<g>
	<g>
		<path fill="#0078B4" d="M37-737.399c0-5.219,4.27-9.489,9.489-9.489h31.021c5.219,0,9.489,4.271,9.489,9.489v31.021
			c0,5.219-4.27,9.489-9.489,9.489H46.489c-5.219,0-9.489-4.271-9.489-9.489V-737.399z"/>
	</g>
</g>
<rect y="-429.889" opacity="0.6" fill="#1E3C64" width="500" height="160"/>
<text transform="matrix(1.0222 0 0 1 220.0459 -303.1562)" fill="#FFFFFF" font-family="'Tahoma-Bold'" font-size="132.4927">GH</text>
<rect fill="#0078B4" width="500.002" height="500"/>
<g>
	<g>
		<rect x="319" fill="#009BDC" width="22" height="500"/>
		<rect x="478" fill="#009BDC" width="22" height="500"/>
		<rect x="159" fill="#009BDC" width="22" height="500"/>
		<rect fill="#009BDC" width="22" height="500"/>
	</g>
	<g>
		<rect y="478" fill="#009BDC" width="500" height="22"/>
		<rect fill="#009BDC" width="500" height="21.998"/>
	</g>
</g>
<path fill="#1E3C64" d="M213.16,104.885H0V0h300c0,0,0,0.612,0,30.413C300,111.187,213.16,104.885,213.16,104.885z"/>
<g>
	<g>
		<path fill="#0078B4" d="M189,32.489c0-5.219,4.27-9.489,9.489-9.489h31.021c5.219,0,9.489,4.271,9.489,9.489v31.021
			c0,5.219-4.27,9.489-9.489,9.489h-31.021C193.27,73,189,68.729,189,63.511V32.489z"/>
	</g>
</g>
<g>
	<g>
		<path fill="#0078B4" d="M113,32.489c0-5.219,4.27-9.489,9.489-9.489h31.021c5.219,0,9.489,4.271,9.489,9.489v31.021
			c0,5.219-4.27,9.489-9.489,9.489h-31.021C117.27,73,113,68.729,113,63.511V32.489z"/>
	</g>
</g>
<g>
	<g>
		<path fill="#0078B4" d="M37,32.489C37,27.271,41.27,23,46.489,23h31.021C82.73,23,87,27.271,87,32.489v31.021
			C87,68.729,82.73,73,77.511,73H46.489C41.27,73,37,68.729,37,63.511V32.489z"/>
	</g>
</g>
<rect x="1000" y="-769.889" fill="#FFFFFF" width="500.002" height="500"/>
<rect x="1319" y="-769.889" width="22" height="322.297"/>
<rect x="1478" y="-769.889" width="22" height="500"/>
<rect x="1159" y="-644.889" width="22" height="197"/>
<rect x="1000" y="-769.889" width="22" height="500"/>
<g>
	<rect x="1000" y="-291.889" width="500" height="22"/>
	<rect x="1000" y="-769.889" width="500" height="21.998"/>
</g>
<rect x="1159" y="-429.889" width="341" height="160"/>
<text transform="matrix(1.0222 0 0 1 1235.0498 -310.1943)" fill="#FFFFFF" font-family="'Tahoma-Bold'" font-size="116.934">GH</text>
<path d="M1213.16-665.004H1000v-104.885h300c0,0,0,0.612,0,30.413C1300-658.702,1213.16-665.004,1213.16-665.004z"/>
<g>
	<g>
		<g>
			<path fill="#FFFFFF" d="M1173.49-735.453c0-4.64,3.796-8.436,8.436-8.436h28.028c4.64,0,8.436,3.796,8.436,8.436v27.129
				c0,4.64-3.796,8.436-8.436,8.436h-28.028c-4.64,0-8.436-3.796-8.436-8.436V-735.453z"/>
		</g>
	</g>
	<g>
		<g>
			<path fill="#FFFFFF" d="M1105.246-735.453c0-4.64,3.796-8.436,8.436-8.436h28.026c4.64,0,8.436,3.796,8.436,8.436v27.129
				c0,4.64-3.796,8.436-8.436,8.436h-28.026c-4.64,0-8.436-3.796-8.436-8.436V-735.453z"/>
		</g>
	</g>
	<g>
		<g>
			<path fill="#FFFFFF" d="M1037-735.453c0-4.64,3.796-8.436,8.436-8.436h28.026c4.64,0,8.436,3.796,8.436,8.436v27.129
				c0,4.64-3.796,8.436-8.436,8.436h-28.026c-4.64,0-8.436-3.796-8.436-8.436V-735.453z"/>
		</g>
	</g>
</g>
<rect x="1000" y="11.361" fill="#FFFFFF" width="500.002" height="500"/>
<rect x="1319" y="11.361" width="22" height="483.435"/>
<rect x="1478" y="11.361" width="22" height="500"/>
<rect x="1159" y="136.361" width="22" height="358.138"/>
<rect x="1000" y="11.361" width="22" height="500"/>
<g>
	<rect x="1000" y="489.361" width="500" height="22"/>
	<rect x="1000" y="11.361" width="500" height="21.998"/>
</g>
<path d="M1213.16,116.246H1000V11.361h300c0,0,0,0.612,0,30.413C1300,122.548,1213.16,116.246,1213.16,116.246z"/>
<g>
	<g>
		<g>
			<path fill="#FFFFFF" d="M1173.49,45.797c0-4.64,3.796-8.436,8.436-8.436h28.028c4.64,0,8.436,3.796,8.436,8.436v27.129
				c0,4.64-3.796,8.436-8.436,8.436h-28.028c-4.64,0-8.436-3.796-8.436-8.436V45.797z"/>
		</g>
	</g>
	<g>
		<g>
			<path fill="#FFFFFF" d="M1105.246,45.797c0-4.64,3.796-8.436,8.436-8.436h28.026c4.64,0,8.436,3.796,8.436,8.436v27.129
				c0,4.64-3.796,8.436-8.436,8.436h-28.026c-4.64,0-8.436-3.796-8.436-8.436V45.797z"/>
		</g>
	</g>
	<g>
		<g>
			<path fill="#FFFFFF" d="M1037,45.797c0-4.64,3.796-8.436,8.436-8.436h28.026c4.64,0,8.436,3.796,8.436,8.436v27.129
				c0,4.64-3.796,8.436-8.436,8.436h-28.026c-4.64,0-8.436-3.796-8.436-8.436V45.797z"/>
		</g>
	</g>
</g>
<rect x="2000" y="-769.889" width="500.002" height="500"/>
<rect x="2319" y="-769.889" fill="#FFFFFF" width="22" height="322.297"/>
<rect x="2478" y="-769.889" fill="#FFFFFF" width="22" height="500"/>
<rect x="2159" y="-644.889" fill="#FFFFFF" width="22" height="197"/>
<rect x="2000" y="-769.889" fill="#FFFFFF" width="22" height="500"/>
<g>
	<rect x="2000" y="-291.889" fill="#FFFFFF" width="500" height="22"/>
	<rect x="2000" y="-769.889" fill="#FFFFFF" width="500" height="21.998"/>
</g>
<rect x="2159" y="-429.889" fill="#FFFFFF" width="341" height="160"/>
<text transform="matrix(1.0222 0 0 1 2235.0498 -310.1943)" font-family="'Tahoma-Bold'" font-size="116.934">GH</text>
<path fill="#FFFFFF" d="M2213.16-665.004H2000v-104.885h300c0,0,0,0.612,0,30.413C2300-658.702,2213.16-665.004,2213.16-665.004z"/>
<g>
	<g>
		<g>
			<path d="M2170.76-735.538c0-4.593,3.758-8.351,8.351-8.351h27.299c4.593,0,8.351,3.758,8.351,8.351v27.299
				c0,4.593-3.758,8.351-8.351,8.351h-27.299c-4.593,0-8.351-3.758-8.351-8.351V-735.538z"/>
		</g>
	</g>
	<g>
		<g>
			<path d="M2103.881-735.538c0-4.593,3.758-8.351,8.351-8.351h27.299c4.593,0,8.351,3.758,8.351,8.351v27.299
				c0,4.593-3.758,8.351-8.351,8.351h-27.299c-4.593,0-8.351-3.758-8.351-8.351V-735.538z"/>
		</g>
	</g>
	<g>
		<g>
			<path d="M2037-735.538c0-4.593,3.758-8.351,8.351-8.351h27.299c4.593,0,8.351,3.758,8.351,8.351v27.299
				c0,4.593-3.758,8.351-8.351,8.351h-27.299c-4.593,0-8.351-3.758-8.351-8.351V-735.538z"/>
		</g>
	</g>
</g>
<rect x="2000" y="7.927" width="500.002" height="500"/>
<rect x="2319" y="7.927" fill="#FFFFFF" width="22" height="483.435"/>
<rect x="2478" y="7.927" fill="#FFFFFF" width="22" height="500"/>
<rect x="2159" y="132.927" fill="#FFFFFF" width="22" height="358.138"/>
<rect x="2000" y="7.927" fill="#FFFFFF" width="22" height="500"/>
<g>
	<rect x="2000" y="485.927" fill="#FFFFFF" width="500" height="22"/>
	<rect x="2000" y="7.927" fill="#FFFFFF" width="500" height="21.998"/>
</g>
<path fill="#FFFFFF" d="M2213.16,112.812H2000V7.927h300c0,0,0,0.612,0,30.413C2300,119.113,2213.16,112.812,2213.16,112.812z"/>
<g>
	<g>
		<g>
			<path d="M2170.76,42.277c0-4.593,3.758-8.351,8.351-8.351h27.299c4.593,0,8.351,3.758,8.351,8.351v27.299
				c0,4.593-3.758,8.351-8.351,8.351h-27.299c-4.593,0-8.351-3.758-8.351-8.351V42.277z"/>
		</g>
	</g>
	<g>
		<g>
			<path d="M2103.881,42.277c0-4.593,3.758-8.351,8.351-8.351h27.299c4.593,0,8.351,3.758,8.351,8.351v27.299
				c0,4.593-3.758,8.351-8.351,8.351h-27.299c-4.593,0-8.351-3.758-8.351-8.351V42.277z"/>
		</g>
	</g>
	<g>
		<g>
			<path d="M2037,42.277c0-4.593,3.758-8.351,8.351-8.351h27.299c4.593,0,8.351,3.758,8.351,8.351v27.299
				c0,4.593-3.758,8.351-8.351,8.351h-27.299c-4.593,0-8.351-3.758-8.351-8.351V42.277z"/>
		</g>
	</g>
</g>
</svg>
